<svg id="Ebene_1" data-name="Ebene 1" xmlns="http://www.w3.org/2000/svg" viewBox="0 0 340.16 340.16"><defs><style>.cls-1{fill:#59a1d9;}.cls-2{fill:#a3d8e6;}.cls-3{isolation:isolate;}</style></defs><title>Zeichenfläche 1</title><path class="cls-1" d="M71,127.22H93v32.19l27.31-32.19h26.07l-30,34.11,31.05,45.22H121l-20-29.46-8,9V206.6H71Z"/><path class="cls-1" d="M148.41,127.22h23.23l13.83,45.9L200.77,127H219.7L235,173.12l13.83-45.9h22.78l-26.52,79.9H225.94l-16-45.67-15.87,45.67H174.93Z"/><path class="cls-2" d="M26.25,95h84.6v22.37H54.11v99.39h56.74v22.37H26.25Z"/><path class="cls-2" d="M229.31,216.76H286v-99.4H229.31V95h84.6V239.12h-84.6Z"/><g class="cls-3"><path class="cls-1" d="M130.37,239.66a11.69,11.69,0,0,1-8.38-3.43,11.71,11.71,0,0,1-3.33-8.19v-.08a11.5,11.5,0,0,1,7.14-10.74,12.43,12.43,0,0,1,4.86-.93,11.26,11.26,0,0,1,5.79,1.37,11.08,11.08,0,0,1,3.77,3.64l-5.34,4a7,7,0,0,0-1.78-1.74,4.32,4.32,0,0,0-2.4-.62,4,4,0,0,0-1.76.39,4.23,4.23,0,0,0-1.39,1.08,5.2,5.2,0,0,0-.91,1.57,5.47,5.47,0,0,0-.33,1.92v.08a5.93,5.93,0,0,0,.33,2,5.09,5.09,0,0,0,.91,1.61,4.16,4.16,0,0,0,3.23,1.47,4.34,4.34,0,0,0,2.38-.62,9.3,9.3,0,0,0,1.92-1.7l5.26,3.81a12.35,12.35,0,0,1-3.93,3.72A11.66,11.66,0,0,1,130.37,239.66Z"/><path class="cls-1" d="M154.54,239.66a13.1,13.1,0,0,1-4.94-.91,12.08,12.08,0,0,1-3.91-2.5A11.27,11.27,0,0,1,142.2,228v-.08a11.2,11.2,0,0,1,.93-4.53,11.53,11.53,0,0,1,2.59-3.72,12.34,12.34,0,0,1,3.93-2.52,13,13,0,0,1,5-.93,12.83,12.83,0,0,1,4.94.93,12.59,12.59,0,0,1,3.91,2.5,11.09,11.09,0,0,1,2.57,3.68,11.27,11.27,0,0,1,.91,4.51v.08a11.19,11.19,0,0,1-.93,4.53,11.51,11.51,0,0,1-2.59,3.72,12.34,12.34,0,0,1-3.93,2.52A13,13,0,0,1,154.54,239.66Zm.08-6.7a4.7,4.7,0,0,0,1.94-.39A4.27,4.27,0,0,0,158,231.5a4.92,4.92,0,0,0,.93-1.58,5.46,5.46,0,0,0,.33-1.89v-.08a5.27,5.27,0,0,0-.35-1.93,4.82,4.82,0,0,0-1-1.58,5,5,0,0,0-1.51-1.09,4.39,4.39,0,0,0-1.9-.41,4.7,4.7,0,0,0-1.94.39,4.28,4.28,0,0,0-1.47,1.07,4.9,4.9,0,0,0-.93,1.58,5.42,5.42,0,0,0-.33,1.89v.08a5.26,5.26,0,0,0,.35,1.93,4.79,4.79,0,0,0,1,1.58,5,5,0,0,0,1.51,1.09A4.39,4.39,0,0,0,154.62,233Z"/><path class="cls-1" d="M170.26,216.73h7.9v4.51a9.22,9.22,0,0,1,2.61-3.64,6.35,6.35,0,0,1,4.47-1.24v8.28h-.66a6.11,6.11,0,0,0-4.76,1.82q-1.66,1.82-1.65,5.71v7h-7.9Z"/><path class="cls-1" d="M188,216.73h7.9v3a14.19,14.19,0,0,1,1.24-1.32,8.28,8.28,0,0,1,1.47-1.1,7.77,7.77,0,0,1,1.82-.77,8.18,8.18,0,0,1,2.25-.29,9.11,9.11,0,0,1,3.78.81,9.55,9.55,0,0,1,3.16,2.3,11.09,11.09,0,0,1,2.17,3.64,13.73,13.73,0,0,1,.8,4.84v.08a14,14,0,0,1-.8,4.9,11.47,11.47,0,0,1-2.15,3.68,9.18,9.18,0,0,1-6.91,3.12,8.94,8.94,0,0,1-2.29-.27,8.8,8.8,0,0,1-1.84-.7,7.12,7.12,0,0,1-1.49-1,14,14,0,0,1-1.2-1.22v9.35H188ZM200.24,233a4.28,4.28,0,0,0,3.25-1.41,5.17,5.17,0,0,0,1.32-3.68v-.08a5.11,5.11,0,0,0-1.32-3.64,4.45,4.45,0,0,0-5-1,4.35,4.35,0,0,0-1.44,1.06,5,5,0,0,0-1,1.59,5.61,5.61,0,0,0-.35,2v.08a5.78,5.78,0,0,0,.35,2,5,5,0,0,0,1,1.61,4.34,4.34,0,0,0,1.44,1.06A4.26,4.26,0,0,0,200.24,233Z"/><path class="cls-1" d="M215.61,231.05h8.19v8.07h-8.19Z"/></g></svg>